<mxfile host="app.diagrams.net" agent="Mozilla/5.0 (X11; Linux x86_64) AppleWebKit/537.36 (KHTML, like Gecko) Chrome/136.0.0.0 Safari/537.36" version="27.0.8">
  <diagram name="PÃ¡gina-1" id="dUUqzMKZ9y0iIG--2WxD">
    <mxGraphModel dx="1290" dy="469" grid="1" gridSize="10" guides="1" tooltips="1" connect="1" arrows="1" fold="1" page="1" pageScale="1" pageWidth="827" pageHeight="1169" math="1" shadow="0">
      <root>
        <mxCell id="0" />
        <mxCell id="1" parent="0" />
        <mxCell id="ht6D7v4Y8DrPFOTWr-DW-1" value="" style="rounded=0;whiteSpace=wrap;html=1;fillColor=#f8cecc;strokeColor=#b85450;" vertex="1" parent="1">
          <mxGeometry x="40" y="145.18" width="50" height="50" as="geometry" />
        </mxCell>
        <mxCell id="ht6D7v4Y8DrPFOTWr-DW-2" value="" style="rounded=0;whiteSpace=wrap;html=1;fillColor=#d5e8d4;strokeColor=#82b366;" vertex="1" parent="1">
          <mxGeometry x="100" y="145.18" width="50" height="50" as="geometry" />
        </mxCell>
        <mxCell id="ht6D7v4Y8DrPFOTWr-DW-3" value="" style="rounded=0;whiteSpace=wrap;html=1;fillColor=#dae8fc;strokeColor=#6c8ebf;" vertex="1" parent="1">
          <mxGeometry x="160" y="145.18" width="50" height="50" as="geometry" />
        </mxCell>
        <mxCell id="ht6D7v4Y8DrPFOTWr-DW-4" value="Filtro 1" style="text;html=1;align=center;verticalAlign=middle;whiteSpace=wrap;rounded=0;" vertex="1" parent="1">
          <mxGeometry x="95.12" y="226" width="60" height="30" as="geometry" />
        </mxCell>
        <mxCell id="ht6D7v4Y8DrPFOTWr-DW-5" value="" style="rounded=0;whiteSpace=wrap;html=1;fillColor=#f8cecc;strokeColor=#b85450;" vertex="1" parent="1">
          <mxGeometry x="71.12" y="250" width="30" height="30" as="geometry" />
        </mxCell>
        <mxCell id="ht6D7v4Y8DrPFOTWr-DW-7" value="" style="endArrow=none;html=1;rounded=0;fillColor=#f8cecc;strokeColor=#b85450;exitX=0.329;exitY=0.998;exitDx=0;exitDy=0;exitPerimeter=0;entryX=0.331;entryY=-0.005;entryDx=0;entryDy=0;entryPerimeter=0;" edge="1" parent="1" source="ht6D7v4Y8DrPFOTWr-DW-5" target="ht6D7v4Y8DrPFOTWr-DW-5">
          <mxGeometry width="50" height="50" relative="1" as="geometry">
            <mxPoint x="91.12" y="290" as="sourcePoint" />
            <mxPoint x="91.12" y="240" as="targetPoint" />
          </mxGeometry>
        </mxCell>
        <mxCell id="ht6D7v4Y8DrPFOTWr-DW-8" value="" style="endArrow=none;html=1;rounded=0;exitX=0.664;exitY=1;exitDx=0;exitDy=0;exitPerimeter=0;entryX=0.66;entryY=-0.006;entryDx=0;entryDy=0;entryPerimeter=0;fillColor=#f8cecc;strokeColor=#b85450;" edge="1" parent="1" source="ht6D7v4Y8DrPFOTWr-DW-5" target="ht6D7v4Y8DrPFOTWr-DW-5">
          <mxGeometry width="50" height="50" relative="1" as="geometry">
            <mxPoint x="121.12" y="280" as="sourcePoint" />
            <mxPoint x="121.12" y="260" as="targetPoint" />
          </mxGeometry>
        </mxCell>
        <mxCell id="ht6D7v4Y8DrPFOTWr-DW-9" value="" style="endArrow=none;html=1;rounded=0;exitX=-0.004;exitY=0.33;exitDx=0;exitDy=0;exitPerimeter=0;entryX=0.998;entryY=0.333;entryDx=0;entryDy=0;entryPerimeter=0;fillColor=#f8cecc;strokeColor=#b85450;" edge="1" parent="1" source="ht6D7v4Y8DrPFOTWr-DW-5" target="ht6D7v4Y8DrPFOTWr-DW-5">
          <mxGeometry width="50" height="50" relative="1" as="geometry">
            <mxPoint x="101.12" y="275" as="sourcePoint" />
            <mxPoint x="131.12" y="255" as="targetPoint" />
          </mxGeometry>
        </mxCell>
        <mxCell id="ht6D7v4Y8DrPFOTWr-DW-11" value="" style="endArrow=none;html=1;rounded=0;exitX=-0.004;exitY=0.33;exitDx=0;exitDy=0;exitPerimeter=0;entryX=0.998;entryY=0.333;entryDx=0;entryDy=0;entryPerimeter=0;fillColor=#f8cecc;strokeColor=#b85450;" edge="1" parent="1">
          <mxGeometry width="50" height="50" relative="1" as="geometry">
            <mxPoint x="71.12" y="270" as="sourcePoint" />
            <mxPoint x="101.12" y="270" as="targetPoint" />
          </mxGeometry>
        </mxCell>
        <mxCell id="ht6D7v4Y8DrPFOTWr-DW-12" value="" style="rounded=0;whiteSpace=wrap;html=1;fillColor=#d5e8d4;strokeColor=#82b366;" vertex="1" parent="1">
          <mxGeometry x="111.24000000000001" y="250.18" width="30" height="30" as="geometry" />
        </mxCell>
        <mxCell id="ht6D7v4Y8DrPFOTWr-DW-13" value="" style="endArrow=none;html=1;rounded=0;fillColor=#d5e8d4;strokeColor=#82b366;exitX=0.329;exitY=0.998;exitDx=0;exitDy=0;exitPerimeter=0;entryX=0.331;entryY=-0.005;entryDx=0;entryDy=0;entryPerimeter=0;" edge="1" parent="1" source="ht6D7v4Y8DrPFOTWr-DW-12" target="ht6D7v4Y8DrPFOTWr-DW-12">
          <mxGeometry width="50" height="50" relative="1" as="geometry">
            <mxPoint x="131.24" y="290.18" as="sourcePoint" />
            <mxPoint x="131.24" y="240.18" as="targetPoint" />
          </mxGeometry>
        </mxCell>
        <mxCell id="ht6D7v4Y8DrPFOTWr-DW-14" value="" style="endArrow=none;html=1;rounded=0;exitX=0.664;exitY=1;exitDx=0;exitDy=0;exitPerimeter=0;entryX=0.66;entryY=-0.006;entryDx=0;entryDy=0;entryPerimeter=0;fillColor=#d5e8d4;strokeColor=#82b366;" edge="1" parent="1" source="ht6D7v4Y8DrPFOTWr-DW-12" target="ht6D7v4Y8DrPFOTWr-DW-12">
          <mxGeometry width="50" height="50" relative="1" as="geometry">
            <mxPoint x="161.24" y="280.18" as="sourcePoint" />
            <mxPoint x="161.24" y="260.18" as="targetPoint" />
          </mxGeometry>
        </mxCell>
        <mxCell id="ht6D7v4Y8DrPFOTWr-DW-15" value="" style="endArrow=none;html=1;rounded=0;exitX=-0.004;exitY=0.33;exitDx=0;exitDy=0;exitPerimeter=0;entryX=0.998;entryY=0.333;entryDx=0;entryDy=0;entryPerimeter=0;fillColor=#d5e8d4;strokeColor=#82b366;" edge="1" parent="1" source="ht6D7v4Y8DrPFOTWr-DW-12" target="ht6D7v4Y8DrPFOTWr-DW-12">
          <mxGeometry width="50" height="50" relative="1" as="geometry">
            <mxPoint x="141.24" y="275.18" as="sourcePoint" />
            <mxPoint x="171.24" y="255.18" as="targetPoint" />
          </mxGeometry>
        </mxCell>
        <mxCell id="ht6D7v4Y8DrPFOTWr-DW-16" value="" style="endArrow=none;html=1;rounded=0;exitX=-0.004;exitY=0.33;exitDx=0;exitDy=0;exitPerimeter=0;entryX=0.998;entryY=0.333;entryDx=0;entryDy=0;entryPerimeter=0;fillColor=#d5e8d4;strokeColor=#82b366;" edge="1" parent="1">
          <mxGeometry width="50" height="50" relative="1" as="geometry">
            <mxPoint x="111.24000000000001" y="270.18" as="sourcePoint" />
            <mxPoint x="141.24" y="270.18" as="targetPoint" />
          </mxGeometry>
        </mxCell>
        <mxCell id="ht6D7v4Y8DrPFOTWr-DW-17" value="" style="rounded=0;whiteSpace=wrap;html=1;fillColor=#dae8fc;strokeColor=#6c8ebf;" vertex="1" parent="1">
          <mxGeometry x="151.12" y="250.36" width="30" height="30" as="geometry" />
        </mxCell>
        <mxCell id="ht6D7v4Y8DrPFOTWr-DW-18" value="" style="endArrow=none;html=1;rounded=0;fillColor=#dae8fc;strokeColor=#6c8ebf;exitX=0.329;exitY=0.998;exitDx=0;exitDy=0;exitPerimeter=0;entryX=0.331;entryY=-0.005;entryDx=0;entryDy=0;entryPerimeter=0;" edge="1" parent="1" source="ht6D7v4Y8DrPFOTWr-DW-17" target="ht6D7v4Y8DrPFOTWr-DW-17">
          <mxGeometry width="50" height="50" relative="1" as="geometry">
            <mxPoint x="171.12" y="290.36" as="sourcePoint" />
            <mxPoint x="171.12" y="240.36" as="targetPoint" />
          </mxGeometry>
        </mxCell>
        <mxCell id="ht6D7v4Y8DrPFOTWr-DW-19" value="" style="endArrow=none;html=1;rounded=0;exitX=0.664;exitY=1;exitDx=0;exitDy=0;exitPerimeter=0;entryX=0.66;entryY=-0.006;entryDx=0;entryDy=0;entryPerimeter=0;fillColor=#dae8fc;strokeColor=#6c8ebf;" edge="1" parent="1" source="ht6D7v4Y8DrPFOTWr-DW-17" target="ht6D7v4Y8DrPFOTWr-DW-17">
          <mxGeometry width="50" height="50" relative="1" as="geometry">
            <mxPoint x="201.12" y="280.36" as="sourcePoint" />
            <mxPoint x="201.12" y="260.36" as="targetPoint" />
          </mxGeometry>
        </mxCell>
        <mxCell id="ht6D7v4Y8DrPFOTWr-DW-20" value="" style="endArrow=none;html=1;rounded=0;exitX=-0.004;exitY=0.33;exitDx=0;exitDy=0;exitPerimeter=0;entryX=0.998;entryY=0.333;entryDx=0;entryDy=0;entryPerimeter=0;fillColor=#dae8fc;strokeColor=#6c8ebf;" edge="1" parent="1" source="ht6D7v4Y8DrPFOTWr-DW-17" target="ht6D7v4Y8DrPFOTWr-DW-17">
          <mxGeometry width="50" height="50" relative="1" as="geometry">
            <mxPoint x="181.12" y="275.36" as="sourcePoint" />
            <mxPoint x="211.12" y="255.36" as="targetPoint" />
          </mxGeometry>
        </mxCell>
        <mxCell id="ht6D7v4Y8DrPFOTWr-DW-21" value="" style="endArrow=none;html=1;rounded=0;exitX=-0.004;exitY=0.33;exitDx=0;exitDy=0;exitPerimeter=0;entryX=0.998;entryY=0.333;entryDx=0;entryDy=0;entryPerimeter=0;fillColor=#dae8fc;strokeColor=#6c8ebf;" edge="1" parent="1">
          <mxGeometry width="50" height="50" relative="1" as="geometry">
            <mxPoint x="151.12" y="270.36" as="sourcePoint" />
            <mxPoint x="181.12" y="270.36" as="targetPoint" />
          </mxGeometry>
        </mxCell>
        <mxCell id="ht6D7v4Y8DrPFOTWr-DW-22" value="Filtro 2" style="text;html=1;align=center;verticalAlign=middle;whiteSpace=wrap;rounded=0;" vertex="1" parent="1">
          <mxGeometry x="95.18" y="296" width="60" height="30" as="geometry" />
        </mxCell>
        <mxCell id="ht6D7v4Y8DrPFOTWr-DW-23" value="" style="rounded=0;whiteSpace=wrap;html=1;fillColor=#f8cecc;strokeColor=#b85450;" vertex="1" parent="1">
          <mxGeometry x="71.18" y="320" width="30" height="30" as="geometry" />
        </mxCell>
        <mxCell id="ht6D7v4Y8DrPFOTWr-DW-24" value="" style="endArrow=none;html=1;rounded=0;fillColor=#f8cecc;strokeColor=#b85450;exitX=0.329;exitY=0.998;exitDx=0;exitDy=0;exitPerimeter=0;entryX=0.331;entryY=-0.005;entryDx=0;entryDy=0;entryPerimeter=0;" edge="1" parent="1" source="ht6D7v4Y8DrPFOTWr-DW-23" target="ht6D7v4Y8DrPFOTWr-DW-23">
          <mxGeometry width="50" height="50" relative="1" as="geometry">
            <mxPoint x="91.18" y="360" as="sourcePoint" />
            <mxPoint x="91.18" y="310" as="targetPoint" />
          </mxGeometry>
        </mxCell>
        <mxCell id="ht6D7v4Y8DrPFOTWr-DW-25" value="" style="endArrow=none;html=1;rounded=0;exitX=0.664;exitY=1;exitDx=0;exitDy=0;exitPerimeter=0;entryX=0.66;entryY=-0.006;entryDx=0;entryDy=0;entryPerimeter=0;fillColor=#f8cecc;strokeColor=#b85450;" edge="1" parent="1" source="ht6D7v4Y8DrPFOTWr-DW-101" target="ht6D7v4Y8DrPFOTWr-DW-23">
          <mxGeometry width="50" height="50" relative="1" as="geometry">
            <mxPoint x="121.18" y="350" as="sourcePoint" />
            <mxPoint x="121.18" y="330" as="targetPoint" />
          </mxGeometry>
        </mxCell>
        <mxCell id="ht6D7v4Y8DrPFOTWr-DW-26" value="" style="endArrow=none;html=1;rounded=0;exitX=-0.004;exitY=0.33;exitDx=0;exitDy=0;exitPerimeter=0;entryX=0.998;entryY=0.333;entryDx=0;entryDy=0;entryPerimeter=0;fillColor=#f8cecc;strokeColor=#b85450;" edge="1" parent="1" source="ht6D7v4Y8DrPFOTWr-DW-23" target="ht6D7v4Y8DrPFOTWr-DW-23">
          <mxGeometry width="50" height="50" relative="1" as="geometry">
            <mxPoint x="101.18" y="345" as="sourcePoint" />
            <mxPoint x="131.18" y="325" as="targetPoint" />
          </mxGeometry>
        </mxCell>
        <mxCell id="ht6D7v4Y8DrPFOTWr-DW-27" value="" style="endArrow=none;html=1;rounded=0;exitX=-0.004;exitY=0.33;exitDx=0;exitDy=0;exitPerimeter=0;entryX=0.998;entryY=0.333;entryDx=0;entryDy=0;entryPerimeter=0;fillColor=#f8cecc;strokeColor=#b85450;" edge="1" parent="1">
          <mxGeometry width="50" height="50" relative="1" as="geometry">
            <mxPoint x="71.18" y="340" as="sourcePoint" />
            <mxPoint x="101.18" y="340" as="targetPoint" />
          </mxGeometry>
        </mxCell>
        <mxCell id="ht6D7v4Y8DrPFOTWr-DW-28" value="" style="rounded=0;whiteSpace=wrap;html=1;fillColor=#d5e8d4;strokeColor=#82b366;" vertex="1" parent="1">
          <mxGeometry x="111.30000000000001" y="320.18" width="30" height="30" as="geometry" />
        </mxCell>
        <mxCell id="ht6D7v4Y8DrPFOTWr-DW-29" value="" style="endArrow=none;html=1;rounded=0;fillColor=#d5e8d4;strokeColor=#82b366;exitX=0.329;exitY=0.998;exitDx=0;exitDy=0;exitPerimeter=0;entryX=0.331;entryY=-0.005;entryDx=0;entryDy=0;entryPerimeter=0;" edge="1" parent="1" source="ht6D7v4Y8DrPFOTWr-DW-28" target="ht6D7v4Y8DrPFOTWr-DW-28">
          <mxGeometry width="50" height="50" relative="1" as="geometry">
            <mxPoint x="131.3" y="360.18" as="sourcePoint" />
            <mxPoint x="131.3" y="310.18" as="targetPoint" />
          </mxGeometry>
        </mxCell>
        <mxCell id="ht6D7v4Y8DrPFOTWr-DW-30" value="" style="endArrow=none;html=1;rounded=0;exitX=0.664;exitY=1;exitDx=0;exitDy=0;exitPerimeter=0;entryX=0.66;entryY=-0.006;entryDx=0;entryDy=0;entryPerimeter=0;fillColor=#d5e8d4;strokeColor=#82b366;" edge="1" parent="1" source="ht6D7v4Y8DrPFOTWr-DW-28" target="ht6D7v4Y8DrPFOTWr-DW-28">
          <mxGeometry width="50" height="50" relative="1" as="geometry">
            <mxPoint x="161.3" y="350.18" as="sourcePoint" />
            <mxPoint x="161.3" y="330.18" as="targetPoint" />
          </mxGeometry>
        </mxCell>
        <mxCell id="ht6D7v4Y8DrPFOTWr-DW-31" value="" style="endArrow=none;html=1;rounded=0;exitX=-0.004;exitY=0.33;exitDx=0;exitDy=0;exitPerimeter=0;entryX=0.998;entryY=0.333;entryDx=0;entryDy=0;entryPerimeter=0;fillColor=#d5e8d4;strokeColor=#82b366;" edge="1" parent="1" source="ht6D7v4Y8DrPFOTWr-DW-28" target="ht6D7v4Y8DrPFOTWr-DW-28">
          <mxGeometry width="50" height="50" relative="1" as="geometry">
            <mxPoint x="141.3" y="345.18" as="sourcePoint" />
            <mxPoint x="171.3" y="325.18" as="targetPoint" />
          </mxGeometry>
        </mxCell>
        <mxCell id="ht6D7v4Y8DrPFOTWr-DW-32" value="" style="endArrow=none;html=1;rounded=0;exitX=-0.004;exitY=0.33;exitDx=0;exitDy=0;exitPerimeter=0;entryX=0.998;entryY=0.333;entryDx=0;entryDy=0;entryPerimeter=0;fillColor=#d5e8d4;strokeColor=#82b366;" edge="1" parent="1">
          <mxGeometry width="50" height="50" relative="1" as="geometry">
            <mxPoint x="111.30000000000001" y="340.18" as="sourcePoint" />
            <mxPoint x="141.3" y="340.18" as="targetPoint" />
          </mxGeometry>
        </mxCell>
        <mxCell id="ht6D7v4Y8DrPFOTWr-DW-33" value="" style="rounded=0;whiteSpace=wrap;html=1;fillColor=#dae8fc;strokeColor=#6c8ebf;" vertex="1" parent="1">
          <mxGeometry x="151.18" y="320.36" width="30" height="30" as="geometry" />
        </mxCell>
        <mxCell id="ht6D7v4Y8DrPFOTWr-DW-34" value="" style="endArrow=none;html=1;rounded=0;fillColor=#dae8fc;strokeColor=#6c8ebf;exitX=0.329;exitY=0.998;exitDx=0;exitDy=0;exitPerimeter=0;entryX=0.331;entryY=-0.005;entryDx=0;entryDy=0;entryPerimeter=0;" edge="1" parent="1" source="ht6D7v4Y8DrPFOTWr-DW-33" target="ht6D7v4Y8DrPFOTWr-DW-33">
          <mxGeometry width="50" height="50" relative="1" as="geometry">
            <mxPoint x="171.18" y="360.36" as="sourcePoint" />
            <mxPoint x="171.18" y="310.36" as="targetPoint" />
          </mxGeometry>
        </mxCell>
        <mxCell id="ht6D7v4Y8DrPFOTWr-DW-35" value="" style="endArrow=none;html=1;rounded=0;exitX=0.664;exitY=1;exitDx=0;exitDy=0;exitPerimeter=0;entryX=0.66;entryY=-0.006;entryDx=0;entryDy=0;entryPerimeter=0;fillColor=#dae8fc;strokeColor=#6c8ebf;" edge="1" parent="1" source="ht6D7v4Y8DrPFOTWr-DW-33" target="ht6D7v4Y8DrPFOTWr-DW-33">
          <mxGeometry width="50" height="50" relative="1" as="geometry">
            <mxPoint x="201.18" y="350.36" as="sourcePoint" />
            <mxPoint x="201.18" y="330.36" as="targetPoint" />
          </mxGeometry>
        </mxCell>
        <mxCell id="ht6D7v4Y8DrPFOTWr-DW-36" value="" style="endArrow=none;html=1;rounded=0;exitX=-0.004;exitY=0.33;exitDx=0;exitDy=0;exitPerimeter=0;entryX=0.998;entryY=0.333;entryDx=0;entryDy=0;entryPerimeter=0;fillColor=#dae8fc;strokeColor=#6c8ebf;" edge="1" parent="1" source="ht6D7v4Y8DrPFOTWr-DW-33" target="ht6D7v4Y8DrPFOTWr-DW-33">
          <mxGeometry width="50" height="50" relative="1" as="geometry">
            <mxPoint x="181.18" y="345.36" as="sourcePoint" />
            <mxPoint x="211.18" y="325.36" as="targetPoint" />
          </mxGeometry>
        </mxCell>
        <mxCell id="ht6D7v4Y8DrPFOTWr-DW-37" value="" style="endArrow=none;html=1;rounded=0;exitX=-0.004;exitY=0.33;exitDx=0;exitDy=0;exitPerimeter=0;entryX=0.998;entryY=0.333;entryDx=0;entryDy=0;entryPerimeter=0;fillColor=#dae8fc;strokeColor=#6c8ebf;" edge="1" parent="1">
          <mxGeometry width="50" height="50" relative="1" as="geometry">
            <mxPoint x="151.18" y="340.36" as="sourcePoint" />
            <mxPoint x="181.18" y="340.36" as="targetPoint" />
          </mxGeometry>
        </mxCell>
        <mxCell id="ht6D7v4Y8DrPFOTWr-DW-38" value="Filtro 3" style="text;html=1;align=center;verticalAlign=middle;whiteSpace=wrap;rounded=0;" vertex="1" parent="1">
          <mxGeometry x="95.18" y="365.82" width="60" height="30" as="geometry" />
        </mxCell>
        <mxCell id="ht6D7v4Y8DrPFOTWr-DW-39" value="" style="rounded=0;whiteSpace=wrap;html=1;fillColor=#f8cecc;strokeColor=#b85450;" vertex="1" parent="1">
          <mxGeometry x="71.18" y="389.82" width="30" height="30" as="geometry" />
        </mxCell>
        <mxCell id="ht6D7v4Y8DrPFOTWr-DW-40" value="" style="endArrow=none;html=1;rounded=0;fillColor=#f8cecc;strokeColor=#b85450;exitX=0.329;exitY=0.998;exitDx=0;exitDy=0;exitPerimeter=0;entryX=0.331;entryY=-0.005;entryDx=0;entryDy=0;entryPerimeter=0;" edge="1" parent="1" source="ht6D7v4Y8DrPFOTWr-DW-106" target="ht6D7v4Y8DrPFOTWr-DW-39">
          <mxGeometry width="50" height="50" relative="1" as="geometry">
            <mxPoint x="91.18" y="429.82" as="sourcePoint" />
            <mxPoint x="91.18" y="379.82" as="targetPoint" />
          </mxGeometry>
        </mxCell>
        <mxCell id="ht6D7v4Y8DrPFOTWr-DW-41" value="" style="endArrow=none;html=1;rounded=0;exitX=0.664;exitY=1;exitDx=0;exitDy=0;exitPerimeter=0;entryX=0.66;entryY=-0.006;entryDx=0;entryDy=0;entryPerimeter=0;fillColor=#f8cecc;strokeColor=#b85450;" edge="1" parent="1" source="ht6D7v4Y8DrPFOTWr-DW-39" target="ht6D7v4Y8DrPFOTWr-DW-39">
          <mxGeometry width="50" height="50" relative="1" as="geometry">
            <mxPoint x="121.18" y="419.82" as="sourcePoint" />
            <mxPoint x="121.18" y="399.82" as="targetPoint" />
          </mxGeometry>
        </mxCell>
        <mxCell id="ht6D7v4Y8DrPFOTWr-DW-42" value="" style="endArrow=none;html=1;rounded=0;exitX=-0.004;exitY=0.33;exitDx=0;exitDy=0;exitPerimeter=0;entryX=0.998;entryY=0.333;entryDx=0;entryDy=0;entryPerimeter=0;fillColor=#f8cecc;strokeColor=#b85450;" edge="1" parent="1" source="ht6D7v4Y8DrPFOTWr-DW-39" target="ht6D7v4Y8DrPFOTWr-DW-39">
          <mxGeometry width="50" height="50" relative="1" as="geometry">
            <mxPoint x="101.18" y="414.82" as="sourcePoint" />
            <mxPoint x="131.18" y="394.82" as="targetPoint" />
          </mxGeometry>
        </mxCell>
        <mxCell id="ht6D7v4Y8DrPFOTWr-DW-43" value="" style="endArrow=none;html=1;rounded=0;exitX=-0.004;exitY=0.33;exitDx=0;exitDy=0;exitPerimeter=0;entryX=0.998;entryY=0.333;entryDx=0;entryDy=0;entryPerimeter=0;fillColor=#f8cecc;strokeColor=#b85450;" edge="1" parent="1">
          <mxGeometry width="50" height="50" relative="1" as="geometry">
            <mxPoint x="71.18" y="409.82" as="sourcePoint" />
            <mxPoint x="101.18" y="409.82" as="targetPoint" />
          </mxGeometry>
        </mxCell>
        <mxCell id="ht6D7v4Y8DrPFOTWr-DW-44" value="" style="rounded=0;whiteSpace=wrap;html=1;fillColor=#d5e8d4;strokeColor=#82b366;" vertex="1" parent="1">
          <mxGeometry x="111.30000000000001" y="390" width="30" height="30" as="geometry" />
        </mxCell>
        <mxCell id="ht6D7v4Y8DrPFOTWr-DW-45" value="" style="endArrow=none;html=1;rounded=0;fillColor=#d5e8d4;strokeColor=#82b366;exitX=0.329;exitY=0.998;exitDx=0;exitDy=0;exitPerimeter=0;entryX=0.331;entryY=-0.005;entryDx=0;entryDy=0;entryPerimeter=0;" edge="1" parent="1" source="ht6D7v4Y8DrPFOTWr-DW-44" target="ht6D7v4Y8DrPFOTWr-DW-44">
          <mxGeometry width="50" height="50" relative="1" as="geometry">
            <mxPoint x="131.3" y="430" as="sourcePoint" />
            <mxPoint x="131.3" y="380" as="targetPoint" />
          </mxGeometry>
        </mxCell>
        <mxCell id="ht6D7v4Y8DrPFOTWr-DW-46" value="" style="endArrow=none;html=1;rounded=0;exitX=0.664;exitY=1;exitDx=0;exitDy=0;exitPerimeter=0;entryX=0.66;entryY=-0.006;entryDx=0;entryDy=0;entryPerimeter=0;fillColor=#d5e8d4;strokeColor=#82b366;" edge="1" parent="1" source="ht6D7v4Y8DrPFOTWr-DW-44" target="ht6D7v4Y8DrPFOTWr-DW-44">
          <mxGeometry width="50" height="50" relative="1" as="geometry">
            <mxPoint x="161.3" y="420" as="sourcePoint" />
            <mxPoint x="161.3" y="400" as="targetPoint" />
          </mxGeometry>
        </mxCell>
        <mxCell id="ht6D7v4Y8DrPFOTWr-DW-47" value="" style="endArrow=none;html=1;rounded=0;exitX=-0.004;exitY=0.33;exitDx=0;exitDy=0;exitPerimeter=0;entryX=0.998;entryY=0.333;entryDx=0;entryDy=0;entryPerimeter=0;fillColor=#d5e8d4;strokeColor=#82b366;" edge="1" parent="1" source="ht6D7v4Y8DrPFOTWr-DW-44" target="ht6D7v4Y8DrPFOTWr-DW-44">
          <mxGeometry width="50" height="50" relative="1" as="geometry">
            <mxPoint x="141.3" y="415" as="sourcePoint" />
            <mxPoint x="171.3" y="395" as="targetPoint" />
          </mxGeometry>
        </mxCell>
        <mxCell id="ht6D7v4Y8DrPFOTWr-DW-48" value="" style="endArrow=none;html=1;rounded=0;exitX=-0.004;exitY=0.33;exitDx=0;exitDy=0;exitPerimeter=0;entryX=0.998;entryY=0.333;entryDx=0;entryDy=0;entryPerimeter=0;fillColor=#d5e8d4;strokeColor=#82b366;" edge="1" parent="1">
          <mxGeometry width="50" height="50" relative="1" as="geometry">
            <mxPoint x="111.30000000000001" y="410" as="sourcePoint" />
            <mxPoint x="141.3" y="410" as="targetPoint" />
          </mxGeometry>
        </mxCell>
        <mxCell id="ht6D7v4Y8DrPFOTWr-DW-49" value="" style="rounded=0;whiteSpace=wrap;html=1;fillColor=#dae8fc;strokeColor=#6c8ebf;" vertex="1" parent="1">
          <mxGeometry x="151.18" y="390.18" width="30" height="30" as="geometry" />
        </mxCell>
        <mxCell id="ht6D7v4Y8DrPFOTWr-DW-50" value="" style="endArrow=none;html=1;rounded=0;fillColor=#dae8fc;strokeColor=#6c8ebf;exitX=0.329;exitY=0.998;exitDx=0;exitDy=0;exitPerimeter=0;entryX=0.331;entryY=-0.005;entryDx=0;entryDy=0;entryPerimeter=0;" edge="1" parent="1" source="ht6D7v4Y8DrPFOTWr-DW-49" target="ht6D7v4Y8DrPFOTWr-DW-49">
          <mxGeometry width="50" height="50" relative="1" as="geometry">
            <mxPoint x="171.18" y="430.18" as="sourcePoint" />
            <mxPoint x="171.18" y="380.18" as="targetPoint" />
          </mxGeometry>
        </mxCell>
        <mxCell id="ht6D7v4Y8DrPFOTWr-DW-51" value="" style="endArrow=none;html=1;rounded=0;exitX=0.664;exitY=1;exitDx=0;exitDy=0;exitPerimeter=0;entryX=0.66;entryY=-0.006;entryDx=0;entryDy=0;entryPerimeter=0;fillColor=#dae8fc;strokeColor=#6c8ebf;" edge="1" parent="1" source="ht6D7v4Y8DrPFOTWr-DW-49" target="ht6D7v4Y8DrPFOTWr-DW-49">
          <mxGeometry width="50" height="50" relative="1" as="geometry">
            <mxPoint x="201.18" y="420.18" as="sourcePoint" />
            <mxPoint x="201.18" y="400.18" as="targetPoint" />
          </mxGeometry>
        </mxCell>
        <mxCell id="ht6D7v4Y8DrPFOTWr-DW-52" value="" style="endArrow=none;html=1;rounded=0;exitX=-0.004;exitY=0.33;exitDx=0;exitDy=0;exitPerimeter=0;entryX=0.998;entryY=0.333;entryDx=0;entryDy=0;entryPerimeter=0;fillColor=#dae8fc;strokeColor=#6c8ebf;" edge="1" parent="1" source="ht6D7v4Y8DrPFOTWr-DW-49" target="ht6D7v4Y8DrPFOTWr-DW-49">
          <mxGeometry width="50" height="50" relative="1" as="geometry">
            <mxPoint x="181.18" y="415.18" as="sourcePoint" />
            <mxPoint x="211.18" y="395.18" as="targetPoint" />
          </mxGeometry>
        </mxCell>
        <mxCell id="ht6D7v4Y8DrPFOTWr-DW-53" value="" style="endArrow=none;html=1;rounded=0;exitX=-0.004;exitY=0.33;exitDx=0;exitDy=0;exitPerimeter=0;entryX=0.998;entryY=0.333;entryDx=0;entryDy=0;entryPerimeter=0;fillColor=#dae8fc;strokeColor=#6c8ebf;" edge="1" parent="1">
          <mxGeometry width="50" height="50" relative="1" as="geometry">
            <mxPoint x="151.18" y="410.18" as="sourcePoint" />
            <mxPoint x="181.18" y="410.18" as="targetPoint" />
          </mxGeometry>
        </mxCell>
        <mxCell id="ht6D7v4Y8DrPFOTWr-DW-54" value="Filtro 4" style="text;html=1;align=center;verticalAlign=middle;whiteSpace=wrap;rounded=0;" vertex="1" parent="1">
          <mxGeometry x="95.24000000000001" y="436.18" width="60" height="30" as="geometry" />
        </mxCell>
        <mxCell id="ht6D7v4Y8DrPFOTWr-DW-55" value="" style="rounded=0;whiteSpace=wrap;html=1;fillColor=#f8cecc;strokeColor=#b85450;" vertex="1" parent="1">
          <mxGeometry x="71.24000000000001" y="460.18" width="30" height="30" as="geometry" />
        </mxCell>
        <mxCell id="ht6D7v4Y8DrPFOTWr-DW-56" value="" style="endArrow=none;html=1;rounded=0;fillColor=#f8cecc;strokeColor=#b85450;exitX=0.329;exitY=0.998;exitDx=0;exitDy=0;exitPerimeter=0;entryX=0.331;entryY=-0.005;entryDx=0;entryDy=0;entryPerimeter=0;" edge="1" parent="1" source="ht6D7v4Y8DrPFOTWr-DW-55" target="ht6D7v4Y8DrPFOTWr-DW-55">
          <mxGeometry width="50" height="50" relative="1" as="geometry">
            <mxPoint x="91.24000000000001" y="500.18000000000006" as="sourcePoint" />
            <mxPoint x="91.24000000000001" y="450.18" as="targetPoint" />
          </mxGeometry>
        </mxCell>
        <mxCell id="ht6D7v4Y8DrPFOTWr-DW-57" value="" style="endArrow=none;html=1;rounded=0;exitX=0.664;exitY=1;exitDx=0;exitDy=0;exitPerimeter=0;entryX=0.66;entryY=-0.006;entryDx=0;entryDy=0;entryPerimeter=0;fillColor=#f8cecc;strokeColor=#b85450;" edge="1" parent="1" source="ht6D7v4Y8DrPFOTWr-DW-55" target="ht6D7v4Y8DrPFOTWr-DW-55">
          <mxGeometry width="50" height="50" relative="1" as="geometry">
            <mxPoint x="121.24000000000001" y="490.18" as="sourcePoint" />
            <mxPoint x="121.24000000000001" y="470.18" as="targetPoint" />
          </mxGeometry>
        </mxCell>
        <mxCell id="ht6D7v4Y8DrPFOTWr-DW-58" value="" style="endArrow=none;html=1;rounded=0;exitX=-0.004;exitY=0.33;exitDx=0;exitDy=0;exitPerimeter=0;entryX=0.998;entryY=0.333;entryDx=0;entryDy=0;entryPerimeter=0;fillColor=#f8cecc;strokeColor=#b85450;" edge="1" parent="1" source="ht6D7v4Y8DrPFOTWr-DW-55" target="ht6D7v4Y8DrPFOTWr-DW-55">
          <mxGeometry width="50" height="50" relative="1" as="geometry">
            <mxPoint x="101.24000000000001" y="485.18" as="sourcePoint" />
            <mxPoint x="131.24" y="465.18" as="targetPoint" />
          </mxGeometry>
        </mxCell>
        <mxCell id="ht6D7v4Y8DrPFOTWr-DW-59" value="" style="endArrow=none;html=1;rounded=0;exitX=-0.004;exitY=0.33;exitDx=0;exitDy=0;exitPerimeter=0;entryX=0.998;entryY=0.333;entryDx=0;entryDy=0;entryPerimeter=0;fillColor=#f8cecc;strokeColor=#b85450;" edge="1" parent="1">
          <mxGeometry width="50" height="50" relative="1" as="geometry">
            <mxPoint x="71.24000000000001" y="480.18" as="sourcePoint" />
            <mxPoint x="101.24000000000001" y="480.18" as="targetPoint" />
          </mxGeometry>
        </mxCell>
        <mxCell id="ht6D7v4Y8DrPFOTWr-DW-60" value="" style="rounded=0;whiteSpace=wrap;html=1;fillColor=#d5e8d4;strokeColor=#82b366;" vertex="1" parent="1">
          <mxGeometry x="111.36000000000001" y="460.36" width="30" height="30" as="geometry" />
        </mxCell>
        <mxCell id="ht6D7v4Y8DrPFOTWr-DW-61" value="" style="endArrow=none;html=1;rounded=0;fillColor=#d5e8d4;strokeColor=#82b366;exitX=0.329;exitY=0.998;exitDx=0;exitDy=0;exitPerimeter=0;entryX=0.331;entryY=-0.005;entryDx=0;entryDy=0;entryPerimeter=0;" edge="1" parent="1" source="ht6D7v4Y8DrPFOTWr-DW-60" target="ht6D7v4Y8DrPFOTWr-DW-60">
          <mxGeometry width="50" height="50" relative="1" as="geometry">
            <mxPoint x="131.36" y="500.36" as="sourcePoint" />
            <mxPoint x="131.36" y="450.36" as="targetPoint" />
          </mxGeometry>
        </mxCell>
        <mxCell id="ht6D7v4Y8DrPFOTWr-DW-62" value="" style="endArrow=none;html=1;rounded=0;exitX=0.664;exitY=1;exitDx=0;exitDy=0;exitPerimeter=0;entryX=0.66;entryY=-0.006;entryDx=0;entryDy=0;entryPerimeter=0;fillColor=#d5e8d4;strokeColor=#82b366;" edge="1" parent="1" source="ht6D7v4Y8DrPFOTWr-DW-60" target="ht6D7v4Y8DrPFOTWr-DW-60">
          <mxGeometry width="50" height="50" relative="1" as="geometry">
            <mxPoint x="161.36" y="490.36" as="sourcePoint" />
            <mxPoint x="161.36" y="470.36" as="targetPoint" />
          </mxGeometry>
        </mxCell>
        <mxCell id="ht6D7v4Y8DrPFOTWr-DW-63" value="" style="endArrow=none;html=1;rounded=0;exitX=-0.004;exitY=0.33;exitDx=0;exitDy=0;exitPerimeter=0;entryX=0.998;entryY=0.333;entryDx=0;entryDy=0;entryPerimeter=0;fillColor=#d5e8d4;strokeColor=#82b366;" edge="1" parent="1" source="ht6D7v4Y8DrPFOTWr-DW-60" target="ht6D7v4Y8DrPFOTWr-DW-60">
          <mxGeometry width="50" height="50" relative="1" as="geometry">
            <mxPoint x="141.36" y="485.36" as="sourcePoint" />
            <mxPoint x="171.36" y="465.36" as="targetPoint" />
          </mxGeometry>
        </mxCell>
        <mxCell id="ht6D7v4Y8DrPFOTWr-DW-64" value="" style="endArrow=none;html=1;rounded=0;exitX=-0.004;exitY=0.33;exitDx=0;exitDy=0;exitPerimeter=0;entryX=0.998;entryY=0.333;entryDx=0;entryDy=0;entryPerimeter=0;fillColor=#d5e8d4;strokeColor=#82b366;" edge="1" parent="1">
          <mxGeometry width="50" height="50" relative="1" as="geometry">
            <mxPoint x="111.36000000000001" y="480.36" as="sourcePoint" />
            <mxPoint x="141.36" y="480.36" as="targetPoint" />
          </mxGeometry>
        </mxCell>
        <mxCell id="ht6D7v4Y8DrPFOTWr-DW-65" value="" style="rounded=0;whiteSpace=wrap;html=1;fillColor=#dae8fc;strokeColor=#6c8ebf;" vertex="1" parent="1">
          <mxGeometry x="151.24" y="460.54" width="30" height="30" as="geometry" />
        </mxCell>
        <mxCell id="ht6D7v4Y8DrPFOTWr-DW-66" value="" style="endArrow=none;html=1;rounded=0;fillColor=#dae8fc;strokeColor=#6c8ebf;exitX=0.329;exitY=0.998;exitDx=0;exitDy=0;exitPerimeter=0;entryX=0.331;entryY=-0.005;entryDx=0;entryDy=0;entryPerimeter=0;" edge="1" parent="1" source="ht6D7v4Y8DrPFOTWr-DW-65" target="ht6D7v4Y8DrPFOTWr-DW-65">
          <mxGeometry width="50" height="50" relative="1" as="geometry">
            <mxPoint x="171.24" y="500.53999999999996" as="sourcePoint" />
            <mxPoint x="171.24" y="450.54" as="targetPoint" />
          </mxGeometry>
        </mxCell>
        <mxCell id="ht6D7v4Y8DrPFOTWr-DW-67" value="" style="endArrow=none;html=1;rounded=0;exitX=0.664;exitY=1;exitDx=0;exitDy=0;exitPerimeter=0;entryX=0.66;entryY=-0.006;entryDx=0;entryDy=0;entryPerimeter=0;fillColor=#dae8fc;strokeColor=#6c8ebf;" edge="1" parent="1" source="ht6D7v4Y8DrPFOTWr-DW-65" target="ht6D7v4Y8DrPFOTWr-DW-65">
          <mxGeometry width="50" height="50" relative="1" as="geometry">
            <mxPoint x="201.24" y="490.54" as="sourcePoint" />
            <mxPoint x="201.24" y="470.54" as="targetPoint" />
          </mxGeometry>
        </mxCell>
        <mxCell id="ht6D7v4Y8DrPFOTWr-DW-68" value="" style="endArrow=none;html=1;rounded=0;exitX=-0.004;exitY=0.33;exitDx=0;exitDy=0;exitPerimeter=0;entryX=0.998;entryY=0.333;entryDx=0;entryDy=0;entryPerimeter=0;fillColor=#dae8fc;strokeColor=#6c8ebf;" edge="1" parent="1" source="ht6D7v4Y8DrPFOTWr-DW-65" target="ht6D7v4Y8DrPFOTWr-DW-65">
          <mxGeometry width="50" height="50" relative="1" as="geometry">
            <mxPoint x="181.24" y="485.54" as="sourcePoint" />
            <mxPoint x="211.24" y="465.54" as="targetPoint" />
          </mxGeometry>
        </mxCell>
        <mxCell id="ht6D7v4Y8DrPFOTWr-DW-69" value="" style="endArrow=none;html=1;rounded=0;exitX=-0.004;exitY=0.33;exitDx=0;exitDy=0;exitPerimeter=0;entryX=0.998;entryY=0.333;entryDx=0;entryDy=0;entryPerimeter=0;fillColor=#dae8fc;strokeColor=#6c8ebf;" edge="1" parent="1">
          <mxGeometry width="50" height="50" relative="1" as="geometry">
            <mxPoint x="151.24" y="480.54" as="sourcePoint" />
            <mxPoint x="181.24" y="480.54" as="targetPoint" />
          </mxGeometry>
        </mxCell>
        <mxCell id="ht6D7v4Y8DrPFOTWr-DW-71" value="" style="rounded=0;whiteSpace=wrap;html=1;fillColor=#f8cecc;strokeColor=#b85450;" vertex="1" parent="1">
          <mxGeometry x="229" y="239.64" width="50" height="50" as="geometry" />
        </mxCell>
        <mxCell id="ht6D7v4Y8DrPFOTWr-DW-72" value="" style="rounded=0;whiteSpace=wrap;html=1;fillColor=#f8cecc;strokeColor=#b85450;" vertex="1" parent="1">
          <mxGeometry x="229" y="309.64" width="50" height="50" as="geometry" />
        </mxCell>
        <mxCell id="ht6D7v4Y8DrPFOTWr-DW-73" value="" style="rounded=0;whiteSpace=wrap;html=1;fillColor=#f8cecc;strokeColor=#b85450;" vertex="1" parent="1">
          <mxGeometry x="229" y="379.82" width="50" height="50" as="geometry" />
        </mxCell>
        <mxCell id="ht6D7v4Y8DrPFOTWr-DW-74" value="" style="rounded=0;whiteSpace=wrap;html=1;fillColor=#f8cecc;strokeColor=#b85450;" vertex="1" parent="1">
          <mxGeometry x="229" y="450.18" width="50" height="50" as="geometry" />
        </mxCell>
        <mxCell id="ht6D7v4Y8DrPFOTWr-DW-75" value="" style="rounded=0;whiteSpace=wrap;html=1;fillColor=#d5e8d4;strokeColor=#82b366;" vertex="1" parent="1">
          <mxGeometry x="299" y="240" width="50" height="50" as="geometry" />
        </mxCell>
        <mxCell id="ht6D7v4Y8DrPFOTWr-DW-76" value="" style="rounded=0;whiteSpace=wrap;html=1;fillColor=#dae8fc;strokeColor=#6c8ebf;" vertex="1" parent="1">
          <mxGeometry x="369" y="240" width="50" height="50" as="geometry" />
        </mxCell>
        <mxCell id="ht6D7v4Y8DrPFOTWr-DW-77" value="" style="rounded=0;whiteSpace=wrap;html=1;fillColor=#d5e8d4;strokeColor=#82b366;" vertex="1" parent="1">
          <mxGeometry x="299" y="309.64" width="50" height="50" as="geometry" />
        </mxCell>
        <mxCell id="ht6D7v4Y8DrPFOTWr-DW-78" value="" style="rounded=0;whiteSpace=wrap;html=1;fillColor=#dae8fc;strokeColor=#6c8ebf;" vertex="1" parent="1">
          <mxGeometry x="369" y="309.64" width="50" height="50" as="geometry" />
        </mxCell>
        <mxCell id="ht6D7v4Y8DrPFOTWr-DW-79" value="" style="rounded=0;whiteSpace=wrap;html=1;fillColor=#d5e8d4;strokeColor=#82b366;" vertex="1" parent="1">
          <mxGeometry x="299" y="379.82" width="50" height="50" as="geometry" />
        </mxCell>
        <mxCell id="ht6D7v4Y8DrPFOTWr-DW-80" value="" style="rounded=0;whiteSpace=wrap;html=1;fillColor=#dae8fc;strokeColor=#6c8ebf;" vertex="1" parent="1">
          <mxGeometry x="369" y="379.82" width="50" height="50" as="geometry" />
        </mxCell>
        <mxCell id="ht6D7v4Y8DrPFOTWr-DW-81" value="" style="rounded=0;whiteSpace=wrap;html=1;fillColor=#d5e8d4;strokeColor=#82b366;" vertex="1" parent="1">
          <mxGeometry x="299" y="449.82" width="50" height="50" as="geometry" />
        </mxCell>
        <mxCell id="ht6D7v4Y8DrPFOTWr-DW-82" value="" style="rounded=0;whiteSpace=wrap;html=1;fillColor=#dae8fc;strokeColor=#6c8ebf;" vertex="1" parent="1">
          <mxGeometry x="369" y="449.82" width="50" height="50" as="geometry" />
        </mxCell>
        <mxCell id="ht6D7v4Y8DrPFOTWr-DW-83" value="&lt;font style=&quot;font-size: 11px;&quot;&gt;Mapas de activaciÃ³n kernels Filtro 1&lt;/font&gt;" style="text;html=1;align=center;verticalAlign=middle;whiteSpace=wrap;rounded=0;" vertex="1" parent="1">
          <mxGeometry x="229" y="215.64" width="190" height="30" as="geometry" />
        </mxCell>
        <mxCell id="ht6D7v4Y8DrPFOTWr-DW-84" value="&lt;b&gt;$$+$$&lt;/b&gt;" style="text;html=1;align=center;verticalAlign=middle;whiteSpace=wrap;rounded=0;" vertex="1" parent="1">
          <mxGeometry x="259" y="249.64" width="60" height="30" as="geometry" />
        </mxCell>
        <mxCell id="ht6D7v4Y8DrPFOTWr-DW-85" value="&lt;b&gt;$$+$$&lt;/b&gt;" style="text;html=1;align=center;verticalAlign=middle;whiteSpace=wrap;rounded=0;" vertex="1" parent="1">
          <mxGeometry x="329" y="250" width="60" height="30" as="geometry" />
        </mxCell>
        <mxCell id="ht6D7v4Y8DrPFOTWr-DW-86" value="&lt;b&gt;$$+$$&lt;/b&gt;" style="text;html=1;align=center;verticalAlign=middle;whiteSpace=wrap;rounded=0;" vertex="1" parent="1">
          <mxGeometry x="259" y="320" width="60" height="30" as="geometry" />
        </mxCell>
        <mxCell id="ht6D7v4Y8DrPFOTWr-DW-87" value="&lt;b&gt;$$+$$&lt;/b&gt;" style="text;html=1;align=center;verticalAlign=middle;whiteSpace=wrap;rounded=0;" vertex="1" parent="1">
          <mxGeometry x="329" y="320" width="60" height="30" as="geometry" />
        </mxCell>
        <mxCell id="ht6D7v4Y8DrPFOTWr-DW-88" value="&lt;b&gt;$$+$$&lt;/b&gt;" style="text;html=1;align=center;verticalAlign=middle;whiteSpace=wrap;rounded=0;" vertex="1" parent="1">
          <mxGeometry x="259" y="389.82" width="60" height="30" as="geometry" />
        </mxCell>
        <mxCell id="ht6D7v4Y8DrPFOTWr-DW-89" value="&lt;b&gt;$$+$$&lt;/b&gt;" style="text;html=1;align=center;verticalAlign=middle;whiteSpace=wrap;rounded=0;" vertex="1" parent="1">
          <mxGeometry x="329" y="389.46" width="60" height="30" as="geometry" />
        </mxCell>
        <mxCell id="ht6D7v4Y8DrPFOTWr-DW-90" value="&lt;b&gt;$$+$$&lt;/b&gt;" style="text;html=1;align=center;verticalAlign=middle;whiteSpace=wrap;rounded=0;" vertex="1" parent="1">
          <mxGeometry x="259" y="459.82" width="60" height="30" as="geometry" />
        </mxCell>
        <mxCell id="ht6D7v4Y8DrPFOTWr-DW-91" value="&lt;b&gt;$$+$$&lt;/b&gt;" style="text;html=1;align=center;verticalAlign=middle;whiteSpace=wrap;rounded=0;" vertex="1" parent="1">
          <mxGeometry x="329" y="459.82" width="60" height="30" as="geometry" />
        </mxCell>
        <mxCell id="ht6D7v4Y8DrPFOTWr-DW-92" value="&lt;b&gt;$$+$$&lt;/b&gt;" style="text;html=1;align=center;verticalAlign=middle;whiteSpace=wrap;rounded=0;" vertex="1" parent="1">
          <mxGeometry x="399" y="250" width="60" height="30" as="geometry" />
        </mxCell>
        <mxCell id="ht6D7v4Y8DrPFOTWr-DW-93" value="&lt;b&gt;$$+$$&lt;/b&gt;" style="text;html=1;align=center;verticalAlign=middle;whiteSpace=wrap;rounded=0;" vertex="1" parent="1">
          <mxGeometry x="399" y="319.64" width="60" height="30" as="geometry" />
        </mxCell>
        <mxCell id="ht6D7v4Y8DrPFOTWr-DW-94" value="&lt;b&gt;$$+$$&lt;/b&gt;" style="text;html=1;align=center;verticalAlign=middle;whiteSpace=wrap;rounded=0;" vertex="1" parent="1">
          <mxGeometry x="399" y="389.46" width="60" height="30" as="geometry" />
        </mxCell>
        <mxCell id="ht6D7v4Y8DrPFOTWr-DW-95" value="&lt;b&gt;$$+$$&lt;/b&gt;" style="text;html=1;align=center;verticalAlign=middle;whiteSpace=wrap;rounded=0;" vertex="1" parent="1">
          <mxGeometry x="399" y="459.82" width="60" height="30" as="geometry" />
        </mxCell>
        <mxCell id="ht6D7v4Y8DrPFOTWr-DW-96" value="$$b_1$$" style="text;html=1;align=center;verticalAlign=middle;whiteSpace=wrap;rounded=0;" vertex="1" parent="1">
          <mxGeometry x="439" y="249.82" width="20" height="30" as="geometry" />
        </mxCell>
        <mxCell id="ht6D7v4Y8DrPFOTWr-DW-97" value="$$b_2$$" style="text;html=1;align=center;verticalAlign=middle;whiteSpace=wrap;rounded=0;" vertex="1" parent="1">
          <mxGeometry x="439" y="319.82" width="20" height="30" as="geometry" />
        </mxCell>
        <mxCell id="ht6D7v4Y8DrPFOTWr-DW-98" value="$$b_3$$" style="text;html=1;align=center;verticalAlign=middle;whiteSpace=wrap;rounded=0;" vertex="1" parent="1">
          <mxGeometry x="439" y="389.82" width="20" height="30" as="geometry" />
        </mxCell>
        <mxCell id="ht6D7v4Y8DrPFOTWr-DW-99" value="$$b_4$$" style="text;html=1;align=center;verticalAlign=middle;whiteSpace=wrap;rounded=0;" vertex="1" parent="1">
          <mxGeometry x="439" y="460.18" width="20" height="30" as="geometry" />
        </mxCell>
        <mxCell id="ht6D7v4Y8DrPFOTWr-DW-100" value="$$k_{1R}$$" style="text;html=1;align=center;verticalAlign=middle;whiteSpace=wrap;rounded=0;fillColor=#f8cecc;strokeColor=none;opacity=50;" vertex="1" parent="1">
          <mxGeometry x="71.12" y="250" width="30" height="30" as="geometry" />
        </mxCell>
        <mxCell id="ht6D7v4Y8DrPFOTWr-DW-102" value="" style="endArrow=none;html=1;rounded=0;exitX=0.664;exitY=1;exitDx=0;exitDy=0;exitPerimeter=0;entryX=0.66;entryY=-0.006;entryDx=0;entryDy=0;entryPerimeter=0;fillColor=#f8cecc;strokeColor=#b85450;" edge="1" parent="1" source="ht6D7v4Y8DrPFOTWr-DW-23" target="ht6D7v4Y8DrPFOTWr-DW-101">
          <mxGeometry width="50" height="50" relative="1" as="geometry">
            <mxPoint x="91.12" y="350" as="sourcePoint" />
            <mxPoint x="91.12" y="320" as="targetPoint" />
          </mxGeometry>
        </mxCell>
        <mxCell id="ht6D7v4Y8DrPFOTWr-DW-101" value="$$k_{2R}$$" style="text;html=1;align=center;verticalAlign=middle;whiteSpace=wrap;rounded=0;fillColor=#f8cecc;strokeColor=none;opacity=50;" vertex="1" parent="1">
          <mxGeometry x="71.24000000000001" y="320.36" width="30" height="30" as="geometry" />
        </mxCell>
        <mxCell id="ht6D7v4Y8DrPFOTWr-DW-103" value="Canal R" style="text;html=1;align=center;verticalAlign=middle;whiteSpace=wrap;rounded=0;" vertex="1" parent="1">
          <mxGeometry x="40" y="123.36" width="50" height="30" as="geometry" />
        </mxCell>
        <mxCell id="ht6D7v4Y8DrPFOTWr-DW-104" value="Canal G" style="text;html=1;align=center;verticalAlign=middle;whiteSpace=wrap;rounded=0;" vertex="1" parent="1">
          <mxGeometry x="100" y="123.36" width="50" height="30" as="geometry" />
        </mxCell>
        <mxCell id="ht6D7v4Y8DrPFOTWr-DW-105" value="Canal B" style="text;html=1;align=center;verticalAlign=middle;whiteSpace=wrap;rounded=0;" vertex="1" parent="1">
          <mxGeometry x="160" y="123.36" width="50" height="30" as="geometry" />
        </mxCell>
        <mxCell id="ht6D7v4Y8DrPFOTWr-DW-107" value="" style="endArrow=none;html=1;rounded=0;fillColor=#f8cecc;strokeColor=#b85450;exitX=0.329;exitY=0.998;exitDx=0;exitDy=0;exitPerimeter=0;entryX=0.331;entryY=-0.005;entryDx=0;entryDy=0;entryPerimeter=0;" edge="1" parent="1" source="ht6D7v4Y8DrPFOTWr-DW-39" target="ht6D7v4Y8DrPFOTWr-DW-106">
          <mxGeometry width="50" height="50" relative="1" as="geometry">
            <mxPoint x="81.12" y="420" as="sourcePoint" />
            <mxPoint x="81.12" y="390" as="targetPoint" />
          </mxGeometry>
        </mxCell>
        <mxCell id="ht6D7v4Y8DrPFOTWr-DW-106" value="$$k_{3R}$$" style="text;html=1;align=center;verticalAlign=middle;whiteSpace=wrap;rounded=0;fillColor=#f8cecc;strokeColor=none;opacity=50;" vertex="1" parent="1">
          <mxGeometry x="71.12" y="390.18" width="30" height="30" as="geometry" />
        </mxCell>
        <mxCell id="ht6D7v4Y8DrPFOTWr-DW-108" value="$$k_{4R}$$" style="text;html=1;align=center;verticalAlign=middle;whiteSpace=wrap;rounded=0;fillColor=#f8cecc;strokeColor=none;opacity=50;" vertex="1" parent="1">
          <mxGeometry x="71.12" y="460.54" width="30" height="30" as="geometry" />
        </mxCell>
        <mxCell id="ht6D7v4Y8DrPFOTWr-DW-109" value="$$k_{1G}$$" style="text;html=1;align=center;verticalAlign=middle;whiteSpace=wrap;rounded=0;fillColor=#d5e8d4;strokeColor=none;opacity=60;" vertex="1" parent="1">
          <mxGeometry x="111.24000000000001" y="250" width="30" height="30" as="geometry" />
        </mxCell>
        <mxCell id="ht6D7v4Y8DrPFOTWr-DW-110" value="$$k_{2G}$$" style="text;html=1;align=center;verticalAlign=middle;whiteSpace=wrap;rounded=0;fillColor=#d5e8d4;strokeColor=none;opacity=60;" vertex="1" parent="1">
          <mxGeometry x="111.24000000000001" y="320.36" width="30" height="30" as="geometry" />
        </mxCell>
        <mxCell id="ht6D7v4Y8DrPFOTWr-DW-111" value="&lt;b&gt;$$=$$&lt;/b&gt;" style="text;html=1;align=center;verticalAlign=middle;whiteSpace=wrap;rounded=0;" vertex="1" parent="1">
          <mxGeometry x="439" y="249.64" width="60" height="30" as="geometry" />
        </mxCell>
        <mxCell id="ht6D7v4Y8DrPFOTWr-DW-112" value="&lt;b&gt;$$=$$&lt;/b&gt;" style="text;html=1;align=center;verticalAlign=middle;whiteSpace=wrap;rounded=0;" vertex="1" parent="1">
          <mxGeometry x="439" y="319.64" width="60" height="30" as="geometry" />
        </mxCell>
        <mxCell id="ht6D7v4Y8DrPFOTWr-DW-113" value="&lt;b&gt;$$=$$&lt;/b&gt;" style="text;html=1;align=center;verticalAlign=middle;whiteSpace=wrap;rounded=0;" vertex="1" parent="1">
          <mxGeometry x="439" y="389.46" width="60" height="30" as="geometry" />
        </mxCell>
        <mxCell id="ht6D7v4Y8DrPFOTWr-DW-114" value="&lt;b&gt;$$=$$&lt;/b&gt;" style="text;html=1;align=center;verticalAlign=middle;whiteSpace=wrap;rounded=0;" vertex="1" parent="1">
          <mxGeometry x="439" y="459.82" width="60" height="30" as="geometry" />
        </mxCell>
        <mxCell id="ht6D7v4Y8DrPFOTWr-DW-115" value="" style="rounded=0;whiteSpace=wrap;html=1;" vertex="1" parent="1">
          <mxGeometry x="489" y="240" width="50" height="50" as="geometry" />
        </mxCell>
        <mxCell id="ht6D7v4Y8DrPFOTWr-DW-116" value="&lt;font style=&quot;font-size: 10px;&quot;&gt;Mapa de caracterÃ­sticas 1&lt;/font&gt;" style="text;html=1;align=center;verticalAlign=middle;whiteSpace=wrap;rounded=0;" vertex="1" parent="1">
          <mxGeometry x="469" y="210" width="90" height="30" as="geometry" />
        </mxCell>
      </root>
    </mxGraphModel>
  </diagram>
</mxfile>
